<?xml version="1.0" encoding="utf-8"?>
<!-- Generator: Adobe Illustrator 18.0.0, SVG Export Plug-In . SVG Version: 6.00 Build 0)  -->
<!DOCTYPE svg PUBLIC "-//W3C//DTD SVG 1.1//EN" "http://www.w3.org/Graphics/SVG/1.1/DTD/svg11.dtd">
<svg version="1.1" xmlns="http://www.w3.org/2000/svg" xmlns:xlink="http://www.w3.org/1999/xlink" x="0px" y="0px"
	 viewBox="0 0 501 212.4" enable-background="new 0 0 501 212.4" xml:space="preserve">
<g id="Calque_1">
	<g>
	</g>
</g>
<g id="Calque_3">
</g>
<g id="Calque_2">
	<linearGradient id="SVGID_1_" gradientUnits="userSpaceOnUse" x1="106.1864" y1="210.5208" x2="106.1864" y2="2.6419">
		<stop  offset="0.1232" style="stop-color:#584DA0"/>
		<stop  offset="1" style="stop-color:#8763AA"/>
	</linearGradient>
	<path fill="url(#SVGID_1_)" d="M185.4,212.4H27c-14.8,0-27-12.1-27-27V27C0,12.1,12.1,0,27,0h158.4c14.8,0,27,12.1,27,27v158.4
		C212.4,200.2,200.2,212.4,185.4,212.4z"/>
	<g>
		<path fill="#FFFFFF" stroke="#FFFFFF" stroke-width="3" stroke-miterlimit="10" d="M88.3,80.2c1.4,2,29.1,33.3,29.1,33.3"/>
		<g>
			<path fill="none" stroke="#FFFFFF" stroke-width="3" stroke-miterlimit="10" d="M66.9,50.5c2.8,1.6,20.3,28.3,21.5,29.9"/>
			<path fill="#FFFFFF" stroke="#FFFFFF" stroke-width="3" stroke-miterlimit="10" d="M117.4,113.5c0,0-7.7,32.5-6.8,35.5"/>
			<path fill="none" stroke="#FFFFFF" stroke-width="3" stroke-miterlimit="10" d="M110.6,149c1.2,4.5,52,29.6,57.1,27.7"/>
			<path fill="none" stroke="#FFFFFF" stroke-width="3" stroke-miterlimit="10" d="M167.7,176.7c3.7-1.3,28.9-30,26.8-33.3"/>
			<path fill="none" stroke="#FFFFFF" stroke-width="3" stroke-miterlimit="10" d="M194.5,143.4c-1.7-2.9-77.1-29.9-77.1-29.9"/>
			<path fill="none" stroke="#FFFFFF" stroke-width="3" stroke-miterlimit="10" d="M18.4,36.3c0,0,45.4,12.5,48.6,14.2"/>
		</g>
	</g>
	<g>
		<path fill="#B496C6" d="M247.9,45h7.9v62.9h39.5v7.3h-47.4V45z"/>
		<path fill="#B496C6" d="M308.9,43.5h8.8V52h-8.8V43.5z M309.4,63.4h7.7v51.8h-7.7V63.4z"/>
		<path fill="#B496C6" d="M335.1,63.4h7.7v9c1.7-2.8,4-5.2,6.8-7.2c2.8-2,6.5-3,10.9-3c3.1,0,5.9,0.5,8.4,1.5s4.5,2.4,6.2,4.3
			c1.7,1.8,3,4,3.9,6.6c0.9,2.5,1.4,5.3,1.4,8.4v32.2h-7.7V85c0-4.8-1.2-8.6-3.7-11.4c-2.5-2.8-6-4.2-10.6-4.2
			c-2.2,0-4.3,0.4-6.2,1.2c-1.9,0.8-3.6,1.9-5,3.3c-1.4,1.4-2.5,3.2-3.3,5.2c-0.8,2-1.2,4.2-1.2,6.6v29.6h-7.7V63.4z"/>
		<path fill="#B496C6" d="M396.8,42h7.7v50.5l28-29.2h9.6l-21.8,22.3l22.5,29.6h-9.2L415.1,91l-10.5,10.6v13.5h-7.7V42z"/>
		<path fill="#B496C6" d="M461.9,131.6c-2.1,0-4.1-0.2-5.8-0.7c-1.7-0.4-3.5-1.1-5.2-2l2.6-6.1c1.3,0.7,2.5,1.2,3.8,1.5
			c1.2,0.3,2.7,0.5,4.4,0.5c2.3,0,4.3-0.7,5.9-2.1s3.2-3.9,4.7-7.6l-23.6-51.6h8.5l18.9,43.2l16.6-43.2h8.2l-21.8,53.5
			c-2.2,5.3-4.7,9.1-7.4,11.3C469.1,130.4,465.8,131.6,461.9,131.6z"/>
	</g>
	<g>
		<path fill="#B496C6" d="M248.9,125H266c6,0,10.6,1.3,13.8,3.9c3.2,2.6,4.9,6.2,4.9,10.7v0.1c0,4.7-1.7,8.4-5.1,10.9
			c-3.4,2.6-8,3.9-13.9,3.9h-15.3v19.1h-1.5V125z M265.7,153.2c5.4,0,9.7-1.1,12.8-3.4c3.1-2.3,4.7-5.6,4.7-9.9v-0.1
			c0-4.2-1.5-7.4-4.6-9.8c-3-2.3-7.3-3.5-12.8-3.5h-15.4v26.8H265.7z"/>
		<path fill="#B496C6" d="M304.7,174.5c-1.7,0-3.3-0.2-4.9-0.7c-1.6-0.4-2.9-1.1-4.1-2c-1.2-0.9-2.2-2-2.9-3.3
			c-0.7-1.3-1.1-2.8-1.1-4.5v-0.1c0-1.8,0.4-3.4,1.2-4.8c0.8-1.4,1.9-2.5,3.3-3.5s3-1.6,4.9-2.1s3.9-0.7,6.1-0.7
			c2.4,0,4.8,0.2,7,0.6c2.2,0.4,4.2,0.9,6,1.6v-2.9c0-4.2-1.2-7.3-3.5-9.3c-2.3-2-5.5-3-9.6-3c-2.2,0-4.2,0.3-6,0.8
			c-1.9,0.5-3.7,1.2-5.5,2.1l-0.6-1.3c1.9-0.9,3.9-1.7,5.8-2.2c1.9-0.6,4.1-0.8,6.3-0.8c4.9,0,8.6,1.3,11.1,3.8
			c1.1,1.1,1.9,2.4,2.5,4.1c0.6,1.7,0.9,3.6,0.9,5.8v21.6h-1.5l0.1-8.2c-0.4,1-1,2.1-1.8,3.1c-0.8,1.1-1.9,2-3.2,2.9
			c-1.3,0.9-2.8,1.6-4.6,2.2C308.9,174.2,306.9,174.5,304.7,174.5z M304.8,173.1c2.3,0,4.4-0.3,6.3-1c1.9-0.7,3.5-1.6,4.9-2.7
			c1.4-1.1,2.4-2.4,3.2-3.9c0.7-1.5,1.1-3,1.1-4.5v-4.4c-1.8-0.7-3.8-1.2-5.9-1.6c-2.1-0.4-4.4-0.6-7.1-0.6c-1.9,0-3.8,0.2-5.5,0.6
			c-1.7,0.4-3.2,1-4.5,1.8c-1.3,0.8-2.3,1.8-3,3c-0.7,1.2-1.1,2.6-1.1,4.2v0.1c0,1.5,0.3,2.9,0.9,4c0.6,1.1,1.5,2.1,2.5,2.8
			c1.1,0.8,2.3,1.3,3.7,1.7C301.8,172.9,303.2,173.1,304.8,173.1z"/>
		<path fill="#B496C6" d="M344.6,174.3c-2.5,0-4.9-0.5-7.4-1.4c-2.5-0.9-4.7-2.2-6.6-3.8l0.9-1.2c1.9,1.6,4.1,2.8,6.4,3.7
			c2.3,0.8,4.6,1.3,6.8,1.3c1.6,0,3-0.2,4.4-0.6c1.3-0.4,2.5-0.9,3.5-1.6c1-0.7,1.7-1.5,2.3-2.5c0.6-0.9,0.8-2,0.8-3.1V165
			c0-1.3-0.3-2.5-1-3.4c-0.6-0.9-1.5-1.7-2.6-2.3c-1.1-0.6-2.3-1.1-3.7-1.6c-1.4-0.4-2.7-0.8-4.1-1.3c-1.8-0.5-3.4-1-4.9-1.5
			c-1.5-0.5-2.8-1.1-3.9-1.8s-1.9-1.5-2.5-2.5c-0.6-0.9-0.9-2.1-0.9-3.5v-0.1c0-1.2,0.3-2.3,0.9-3.4c0.6-1.1,1.4-2,2.4-2.8
			c1-0.8,2.3-1.4,3.8-1.9c1.5-0.5,3.2-0.7,5-0.7c1.9,0,4,0.3,6.1,1c2.1,0.6,4.1,1.6,6,2.9l-0.8,1.3c-1.7-1.2-3.6-2.1-5.5-2.8
			c-2-0.6-3.9-1-5.7-1c-3.2,0-5.8,0.7-7.7,2.1c-1.9,1.4-2.9,3.2-2.9,5.2v0.1c0,1.2,0.3,2.1,0.9,3c0.6,0.8,1.4,1.5,2.4,2.1
			c1,0.6,2.2,1.1,3.5,1.6c1.3,0.5,2.7,0.9,4.3,1.3c1.7,0.5,3.3,1,4.9,1.5c1.5,0.5,2.9,1.2,4,1.9c1.1,0.7,2,1.6,2.7,2.6
			c0.6,1,1,2.3,1,3.8v0.1c0,1.3-0.3,2.6-0.9,3.7c-0.6,1.1-1.5,2.1-2.6,2.9c-1.1,0.8-2.5,1.4-4,1.9
			C348.1,174.1,346.4,174.3,344.6,174.3z"/>
		<path fill="#B496C6" d="M378.9,174.3c-2.9,0-5.1-0.8-6.7-2.5c-1.5-1.6-2.3-4-2.3-7.1v-24.5h-5.5v-1.3h5.5v-12h1.5v12h12.9v1.3
			h-12.9v24.4c0,2.6,0.6,4.7,1.8,6.1c1.2,1.4,3.1,2.2,5.6,2.2c1.9,0,3.6-0.4,5.3-1.3v1.5C382.5,173.9,380.8,174.3,378.9,174.3z"/>
		<path fill="#B496C6" d="M397.1,185c-1.2,0-2.4-0.2-3.6-0.6c-1.2-0.4-2.2-0.8-3-1.3l0.7-1.2c0.8,0.5,1.7,0.9,2.8,1.2
			c1.1,0.3,2.1,0.5,3.1,0.5c1,0,1.9-0.1,2.7-0.4c0.8-0.3,1.6-0.8,2.4-1.5c0.8-0.7,1.5-1.8,2.3-3.1c0.8-1.3,1.7-3,2.6-5.1l-16.7-34.7
			h1.6l15.8,33.2l14.9-33.2h1.5l-16.1,35.4c-1,2.2-2,4-2.8,5.4c-0.9,1.4-1.7,2.5-2.6,3.2c-0.9,0.8-1.7,1.3-2.7,1.6
			C399.2,184.8,398.2,185,397.1,185z"/>
	</g>
	<g>
	</g>
	<g>
	</g>
	<g>
	</g>
	<g>
	</g>
	<g>
	</g>
	<g>
	</g>
</g>
</svg>
