<?xml version="1.0" encoding="utf-8"?>
<!-- Generator: Adobe Illustrator 18.0.0, SVG Export Plug-In . SVG Version: 6.00 Build 0)  -->
<!DOCTYPE svg PUBLIC "-//W3C//DTD SVG 1.1//EN" "http://www.w3.org/Graphics/SVG/1.1/DTD/svg11.dtd">
<svg version="1.1" xmlns="http://www.w3.org/2000/svg" xmlns:xlink="http://www.w3.org/1999/xlink" x="0px" y="0px"
	 viewBox="0 0 388.8 142.9" enable-background="new 0 0 388.8 142.9" xml:space="preserve">
<g id="Calque_1">
	<g>
	</g>
</g>
<g id="Calque_3">
</g>
<g id="Calque_2">
	<linearGradient id="SVGID_1_" gradientUnits="userSpaceOnUse" x1="63.6451" y1="129.28" x2="63.6451" y2="4.6833">
		<stop  offset="0.1232" style="stop-color:#584DA0"/>
		<stop  offset="1" style="stop-color:#8763AA"/>
	</linearGradient>
	<path fill="url(#SVGID_1_)" d="M100.3,130.4H27c-14.8,0-27-12.1-27-27V30.1c0-14.8,12.1-27,27-27h73.3c14.8,0,27,12.1,27,27v73.3
		C127.3,118.3,115.2,130.4,100.3,130.4z"/>
	<g>
		<path fill="#FFFFFF" stroke="#FFFFFF" stroke-width="6" stroke-miterlimit="10" d="M52.9,51.2c0.8,1.2,17.5,20,17.5,20"/>
		<g>
			<path fill="none" stroke="#FFFFFF" stroke-width="6" stroke-miterlimit="10" d="M40.1,33.4c1.7,1,12.2,17,12.9,17.9"/>
			<path fill="#FFFFFF" stroke="#FFFFFF" stroke-width="6" stroke-miterlimit="10" d="M70.4,71.1c0,0-4.6,19.5-4.1,21.3"/>
			<path fill="none" stroke="#FFFFFF" stroke-width="6" stroke-miterlimit="10" d="M66.3,92.4c0.7,2.7,31.2,17.7,34.2,16.6"/>
			<path fill="none" stroke="#FFFFFF" stroke-width="6" stroke-miterlimit="10" d="M100.5,109c2.2-0.8,17.3-18,16.1-20"/>
			<path fill="none" stroke="#FFFFFF" stroke-width="6" stroke-miterlimit="10" d="M116.6,89c-1-1.7-46.2-17.9-46.2-17.9"/>
			<path fill="none" stroke="#FFFFFF" stroke-width="6" stroke-miterlimit="10" d="M11,24.9c0,0,27.2,7.5,29.1,8.5"/>
		</g>
	</g>
	<g>
		<path fill="#B496C6" d="M136.1,2.9h7.9v62.9h39.5v7.3h-47.4V2.9z"/>
		<path fill="#B496C6" d="M197.1,1.4h8.8V10h-8.8V1.4z M197.6,21.3h7.7v51.8h-7.7V21.3z"/>
		<path fill="#B496C6" d="M223.2,21.3h7.7v9c1.7-2.8,4-5.2,6.8-7.2c2.8-2,6.5-3,10.9-3c3.1,0,5.9,0.5,8.4,1.5c2.4,1,4.5,2.4,6.2,4.3
			c1.7,1.8,3,4,3.9,6.6c0.9,2.5,1.4,5.3,1.4,8.4v32.2h-7.7V42.9c0-4.8-1.2-8.6-3.7-11.4c-2.5-2.8-6-4.2-10.6-4.2
			c-2.2,0-4.3,0.4-6.2,1.2c-1.9,0.8-3.6,1.9-5,3.3c-1.4,1.4-2.5,3.2-3.3,5.2c-0.8,2-1.2,4.2-1.2,6.6v29.6h-7.7V21.3z"/>
		<path fill="#B496C6" d="M285-0.1h7.7v50.5l28-29.2h9.6l-21.8,22.3L331,73.1h-9.2L303.3,49l-10.5,10.6v13.5H285V-0.1z"/>
		<path fill="#B496C6" d="M350.1,89.5c-2.1,0-4.1-0.2-5.8-0.7c-1.7-0.4-3.5-1.1-5.2-2l2.6-6.1c1.3,0.7,2.5,1.2,3.8,1.5
			c1.2,0.3,2.7,0.5,4.4,0.5c2.3,0,4.3-0.7,5.9-2.1s3.2-3.9,4.7-7.6l-23.6-51.6h8.5l18.9,43.2l16.6-43.2h8.2l-21.8,53.5
			c-2.2,5.3-4.7,9.1-7.4,11.3C357.3,88.4,354,89.5,350.1,89.5z"/>
	</g>
	<g>
		<path fill="#B496C6" d="M137.1,82.9h17.1c6,0,10.6,1.3,13.8,3.9c3.2,2.6,4.9,6.2,4.9,10.7v0.1c0,4.7-1.7,8.4-5.1,10.9
			c-3.4,2.6-8,3.9-13.9,3.9h-15.3v19.1h-1.5V82.9z M153.9,111.1c5.4,0,9.7-1.1,12.8-3.4c3.1-2.3,4.7-5.6,4.7-9.9v-0.1
			c0-4.2-1.5-7.4-4.6-9.8c-3-2.3-7.3-3.5-12.8-3.5h-15.4v26.8H153.9z"/>
		<path fill="#B496C6" d="M192.9,132.4c-1.7,0-3.3-0.2-4.9-0.7c-1.6-0.4-2.9-1.1-4.1-2c-1.2-0.9-2.2-2-2.9-3.3
			c-0.7-1.3-1.1-2.8-1.1-4.5v-0.1c0-1.8,0.4-3.4,1.2-4.8c0.8-1.4,1.9-2.5,3.3-3.5s3-1.6,4.9-2.1s3.9-0.7,6.1-0.7
			c2.4,0,4.8,0.2,7,0.6c2.2,0.4,4.2,0.9,6,1.6V110c0-4.2-1.2-7.3-3.5-9.3c-2.3-2-5.5-3-9.6-3c-2.2,0-4.2,0.3-6,0.8
			c-1.9,0.5-3.7,1.2-5.5,2.1l-0.6-1.3c1.9-0.9,3.9-1.7,5.8-2.2c1.9-0.6,4.1-0.8,6.3-0.8c4.9,0,8.6,1.3,11.1,3.8
			c1.1,1.1,1.9,2.4,2.5,4.1c0.6,1.7,0.9,3.6,0.9,5.8v21.6h-1.5l0.1-8.2c-0.4,1-1,2.1-1.8,3.1c-0.8,1.1-1.9,2-3.2,2.9
			c-1.3,0.9-2.8,1.6-4.6,2.2C197.1,132.1,195.1,132.4,192.9,132.4z M192.9,131c2.3,0,4.4-0.3,6.3-1c1.9-0.7,3.5-1.6,4.9-2.7
			c1.4-1.1,2.4-2.4,3.2-3.9c0.7-1.5,1.1-3,1.1-4.5v-4.4c-1.8-0.7-3.8-1.2-5.9-1.6c-2.1-0.4-4.4-0.6-7.1-0.6c-1.9,0-3.8,0.2-5.5,0.6
			c-1.7,0.4-3.2,1-4.5,1.8c-1.3,0.8-2.3,1.8-3,3c-0.7,1.2-1.1,2.6-1.1,4.2v0.1c0,1.5,0.3,2.9,0.9,4c0.6,1.1,1.5,2.1,2.5,2.8
			c1.1,0.8,2.3,1.3,3.7,1.7C189.9,130.8,191.4,131,192.9,131z"/>
		<path fill="#B496C6" d="M232.8,132.2c-2.5,0-4.9-0.5-7.4-1.4c-2.5-0.9-4.7-2.2-6.6-3.8l0.9-1.2c1.9,1.6,4.1,2.8,6.4,3.7
			c2.3,0.8,4.6,1.3,6.8,1.3c1.6,0,3-0.2,4.4-0.6c1.3-0.4,2.5-0.9,3.5-1.6c1-0.7,1.7-1.5,2.3-2.5c0.6-0.9,0.8-2,0.8-3.1V123
			c0-1.3-0.3-2.5-1-3.4c-0.6-0.9-1.5-1.7-2.6-2.3c-1.1-0.6-2.3-1.1-3.7-1.6c-1.4-0.4-2.7-0.8-4.1-1.3c-1.8-0.5-3.4-1-4.9-1.5
			c-1.5-0.5-2.8-1.1-3.9-1.8s-1.9-1.5-2.5-2.5c-0.6-0.9-0.9-2.1-0.9-3.5V105c0-1.2,0.3-2.3,0.9-3.4c0.6-1.1,1.4-2,2.4-2.8
			c1-0.8,2.3-1.4,3.8-1.9c1.5-0.5,3.2-0.7,5-0.7c1.9,0,4,0.3,6.1,1c2.1,0.6,4.1,1.6,6,2.9l-0.8,1.3c-1.7-1.2-3.6-2.1-5.5-2.8
			c-2-0.6-3.9-1-5.7-1c-3.2,0-5.8,0.7-7.7,2.1c-1.9,1.4-2.9,3.2-2.9,5.2v0.1c0,1.2,0.3,2.1,0.9,3c0.6,0.8,1.4,1.5,2.4,2.1
			c1,0.6,2.2,1.1,3.5,1.6c1.3,0.5,2.7,0.9,4.3,1.3c1.7,0.5,3.3,1,4.9,1.5c1.5,0.5,2.9,1.2,4,1.9c1.1,0.7,2,1.6,2.7,2.6
			c0.6,1,1,2.3,1,3.8v0.1c0,1.3-0.3,2.6-0.9,3.7c-0.6,1.1-1.5,2.1-2.6,2.9c-1.1,0.8-2.5,1.4-4,1.9
			C236.2,132,234.6,132.2,232.8,132.2z"/>
		<path fill="#B496C6" d="M267,132.2c-2.9,0-5.1-0.8-6.7-2.5c-1.5-1.6-2.3-4-2.3-7.1V98.2h-5.5v-1.3h5.5v-12h1.5v12h12.9v1.3h-12.9
			v24.4c0,2.6,0.6,4.7,1.8,6.1c1.2,1.4,3.1,2.2,5.6,2.2c1.9,0,3.6-0.4,5.3-1.3v1.5C270.7,131.8,268.9,132.2,267,132.2z"/>
		<path fill="#B496C6" d="M285.2,142.9c-1.2,0-2.4-0.2-3.6-0.6c-1.2-0.4-2.2-0.8-3-1.3l0.7-1.2c0.8,0.5,1.7,0.9,2.8,1.2
			c1.1,0.3,2.1,0.5,3.1,0.5c1,0,1.9-0.1,2.7-0.4c0.8-0.3,1.6-0.8,2.4-1.5c0.8-0.7,1.5-1.8,2.3-3.1c0.8-1.3,1.7-3,2.6-5.1l-16.7-34.7
			h1.6l15.8,33.2l14.9-33.2h1.5l-16.1,35.4c-1,2.2-2,4-2.8,5.4c-0.9,1.4-1.7,2.5-2.6,3.2c-0.9,0.8-1.7,1.3-2.7,1.6
			C287.4,142.8,286.3,142.9,285.2,142.9z"/>
	</g>
	<g>
	</g>
	<g>
	</g>
	<g>
	</g>
	<g>
	</g>
	<g>
	</g>
	<g>
	</g>
</g>
</svg>
